<?xml version="1.0" encoding="UTF-8" standalone="no" ?>
<!DOCTYPE svg PUBLIC "-//W3C//DTD SVG 1.1//EN" "http://www.w3.org/Graphics/SVG/1.1/DTD/svg11.dtd">
<svg xmlns="http://www.w3.org/2000/svg" xmlns:xlink="http://www.w3.org/1999/xlink" version="1.1" width="1080" height="1080" viewBox="0 0 1080 1080" xml:space="preserve">
<desc>Created with Fabric.js 5.2.4</desc>
<defs>
</defs>
<rect x="0" y="0" width="100%" height="100%" fill="transparent"></rect>
<g transform="matrix(1 0 0 1 540 540)" id="6184b76a-89f5-4fa4-85e0-1180d548a796"  >
<rect style="stroke: none; stroke-width: 1; stroke-dasharray: none; stroke-linecap: butt; stroke-dashoffset: 0; stroke-linejoin: miter; stroke-miterlimit: 4; fill: rgb(255,255,255); fill-rule: nonzero; opacity: 1; visibility: hidden;" vector-effect="non-scaling-stroke"  x="-540" y="-540" rx="0" ry="0" width="1080" height="1080" />
</g>
<g transform="matrix(1 0 0 1 540 540)" id="f446933c-195f-4382-acb8-c140700896a0"  >
</g>
<g transform="matrix(8.92 0 0 8.92 536.07 537.82)" id="d992643b-f433-418c-a893-845e512c61c4"  >
<path style="stroke: rgb(0,0,0); stroke-width: 0; stroke-dasharray: none; stroke-linecap: butt; stroke-dashoffset: 0; stroke-linejoin: miter; stroke-miterlimit: 4; fill: rgb(255,255,255); fill-rule: nonzero; opacity: 1;" vector-effect="non-scaling-stroke"  transform=" translate(-61.45, -34.08)" d="M 61.44 13.81 C 71.12931378468556 13.775353207820475 79.49379896635277 20.58999836395405 81.41807536093188 30.08637463996437 C 83.34235175551099 39.58275091597469 78.29048220268655 49.115988297871276 69.35198540465709 52.85594511713046 C 60.41348860662764 56.595901936389645 50.077857551469094 53.500949327707715 44.665945362968756 45.46383489015816 C 39.25403317446842 37.426720452608606 40.27313103925224 26.68588992139091 47.099999999999994 19.810000000000002 C 50.890822811396056 15.980998328406796 56.051915174119145 13.821545456974546 61.44 13.810000000000002 Z M 1.05 31.31 C 4.230626361639068 27.44583298383505 7.679137650842232 23.810193175062736 11.369999999999965 20.430000000000046 C 25.74 7.35 42.08 0.36 59 0 C 75.92 -0.36 93.09 5.92 109.35 19.32 C 113.80979719057218 23.016983727457436 118.00041511126847 27.027144417118954 121.88999999999993 31.319999999999943 C 123.13490840134692 32.722079366251954 123.23884109099089 34.800733159131156 122.13999999999999 36.32 C 117.81289910624547 42.487960770108515 112.63492130918844 48.01270821157181 106.75999999999998 52.730000000000004 C 94.48804325350163 62.64718533298915 79.20797051265444 68.09553806426287 63.42999999999999 68.18000000000004 C 47.538158929001426 68.13853032389005 32.059109297824655 63.11640757866413 19.170000000000016 53.819999999999986 C 12.274869054735687 48.92243624276983 6.110016275079998 43.07070815372472 0.8600000000000065 36.44000000000001 C -0.35221427202057265 34.917717867493735 -0.2715003084744042 32.738440851747185 1.0499999999999994 31.310000000000002 Z M 16.68 26.31 C 14.01245037792157 28.733829801386037 11.47870810694167 31.300954710982236 9.089999999999982 33.999999999999986 C 13.396878801074532 39.039087681309056 18.307057861264852 43.52944979038869 23.71000000000004 47.370000000000005 C 35.26523614182069 55.71877584567936 49.144405610007375 60.24025886970691 63.400000000000006 60.29999999999999 C 77.38858745796539 60.21387996437845 90.93256600316938 55.37598916406086 101.81 46.58000000000002 C 106.29430104387991 42.9821375582993 110.32394074238829 38.8517568673282 113.81 34.279999999999994 C 110.81990156621052 31.142842402110205 107.64774991268224 28.184393596819625 104.30999999999997 25.419999999999973 C 89.56 13.26 74.08 7.58 59.11 7.89 C 44.14 8.2 29.63 14.48 16.68 26.27 Z M 56.37 18.52 C 60.716480981168345 18.52 64.24 22.043519018831653 64.24 26.389999999999997 C 64.24 30.73648098116834 60.716480981168345 34.26 56.370000000000005 34.26 C 52.02351901883166 34.260000000000005 48.5 30.73648098116835 48.5 26.39 C 48.497341731247076 24.30193243378584 49.3256463983089 22.29862226257474 50.80213433044182 20.822134330441816 C 52.278622262574736 19.345646398308897 54.28193243378584 18.517341731247072 56.370000000000005 18.52 Z" stroke-linecap="round" />
</g>
</svg>